<svg xmlns="http://www.w3.org/2000/svg" width="20" height="20" viewBox="0 0 20 20" fill="none">
  <path fill-rule="evenodd" clip-rule="evenodd" d="M8.625 13.8781L13.0448 9.45833L12.141 8.55458L8.61208 12.0833L6.84625 10.3173L5.95521 11.2083L8.625 13.8781ZM5.41667 16.25C4.265 16.25 3.28264 15.8499 2.46958 15.0496C1.65653 14.2494 1.25 13.2735 1.25 12.1219C1.25 11.1026 1.57639 10.196 2.22917 9.40229C2.88194 8.6084 3.71472 8.13882 4.7275 7.99354C4.99458 6.74785 5.62097 5.72917 6.60667 4.9375C7.59222 4.14583 8.72333 3.75 10 3.75C11.5075 3.75 12.7872 4.2759 13.839 5.32771C14.8908 6.37951 15.4167 7.65917 15.4167 9.16667V9.58333H15.6731C16.5513 9.65167 17.2837 10.0048 17.8702 10.6427C18.4567 11.2805 18.75 12.0385 18.75 12.9167C18.75 13.8461 18.4268 14.634 17.7804 15.2804C17.134 15.9268 16.3461 16.25 15.4167 16.25H5.41667ZM5.41667 15H15.4167C16 15 16.4931 14.7986 16.8958 14.3958C17.2986 13.9931 17.5 13.5 17.5 12.9167C17.5 12.3333 17.2986 11.8403 16.8958 11.4375C16.4931 11.0347 16 10.8333 15.4167 10.8333H14.1667V9.16667C14.1667 8.01389 13.7604 7.03125 12.9479 6.21875C12.1354 5.40625 11.1528 5 10 5C8.84722 5 7.86458 5.40625 7.05208 6.21875C6.23958 7.03125 5.83333 8.01389 5.83333 9.16667H5.41667C4.61111 9.16667 3.92361 9.45139 3.35417 10.0208C2.78472 10.5903 2.5 11.2778 2.5 12.0833C2.5 12.8889 2.78472 13.5764 3.35417 14.1458C3.92361 14.7153 4.61111 15 5.41667 15Z" fill="currentColor"/>
</svg>
