<svg xmlns="http://www.w3.org/2000/svg" width="20" height="20" viewBox="0 0 20 20" fill="none">
  <mask id="mask0_link" style="mask-type:alpha" maskUnits="userSpaceOnUse" x="0" y="0" width="20" height="20">
    <rect width="20" height="20" fill="#D9D9D9"/>
  </mask>
  <g mask="url(#mask0_link)">
    <path d="M6.729 17.0807C5.67553 17.0807 4.77678 16.7086 4.03275 15.9645C3.28859 15.2205 2.9165 14.3217 2.9165 13.2682C2.9165 12.7555 3.01137 12.2677 3.20109 11.8051C3.39067 11.3425 3.66657 10.9301 4.0288 10.568L6.68421 7.93323L7.56234 8.81156L4.90692 11.4589C4.66012 11.7057 4.47366 11.985 4.34755 12.297C4.22157 12.6091 4.15859 12.9328 4.15859 13.2682C4.15859 13.9809 4.4088 14.5861 4.90921 15.0839C5.40977 15.5818 6.01637 15.8307 6.729 15.8307C7.06442 15.8307 7.39025 15.7677 7.7065 15.6416C8.02275 15.5156 8.30428 15.3292 8.55109 15.0824L11.1938 12.4349L12.0848 13.3259L9.42921 15.9605C9.06713 16.3227 8.65477 16.6 8.19213 16.7922C7.72949 16.9846 7.24178 17.0807 6.729 17.0807ZM8.3188 12.5616L7.43567 11.6705L11.6809 7.42531L12.5719 8.31635L8.3188 12.5616ZM13.3155 12.0743L12.4373 11.1914L15.0928 8.54865C15.3343 8.30726 15.5159 8.03406 15.6378 7.72906C15.7594 7.42392 15.8203 7.10365 15.8203 6.76823C15.8203 6.04712 15.5721 5.43281 15.0759 4.92531C14.5796 4.41781 13.9709 4.16406 13.2498 4.16406C12.9144 4.16406 12.5907 4.22712 12.2786 4.35323C11.9666 4.4792 11.69 4.66295 11.4486 4.90448L8.80588 7.5599L7.92296 6.68177L10.5705 4.03427C10.9325 3.67205 11.3449 3.39483 11.8075 3.2026C12.2702 3.01024 12.7579 2.91406 13.2707 2.91406C14.3241 2.91406 15.2207 3.28747 15.9605 4.03427C16.7003 4.78108 17.0703 5.68545 17.0703 6.7474C17.0703 7.2517 16.9776 7.73378 16.7923 8.19365C16.6069 8.65365 16.3331 9.06469 15.9709 9.42677L13.3155 12.0743Z" fill="currentColor"/>
  </g>
</svg>
