<svg xmlns="http://www.w3.org/2000/svg" width="20" height="20" viewBox="0 0 20 20" fill="none">
  <g clip-path="url(#clip0_mcp)">
    <path fill-rule="evenodd" clip-rule="evenodd" d="M13.0732 1.95484C12.6705 1.56298 12.1309 1.34372 11.569 1.34372C11.0072 1.34372 10.4675 1.56298 10.0649 1.95484L2.04319 9.82151C1.90895 9.95198 1.72913 10.025 1.54194 10.025C1.35474 10.025 1.17492 9.95198 1.04069 9.82151C0.974968 9.7576 0.922728 9.68116 0.887057 9.59671C0.851386 9.51226 0.833008 9.42152 0.833008 9.32984C0.833008 9.23817 0.851386 9.14743 0.887057 9.06298C0.922728 8.97853 0.974968 8.90209 1.04069 8.83818L9.06235 0.971509C9.73336 0.318503 10.6327 -0.046875 11.569 -0.046875C12.5053 -0.046875 13.4047 0.318503 14.0757 0.971509C14.4639 1.3491 14.7573 1.81326 14.9317 2.326C15.1061 2.83875 15.1566 3.3855 15.079 3.92151C15.6221 3.84426 16.1758 3.89275 16.6972 4.06324C17.2186 4.23372 17.6939 4.52166 18.0865 4.90484L18.1282 4.94651C18.4568 5.26608 18.718 5.64828 18.8963 6.07052C19.0747 6.49276 19.1666 6.94648 19.1666 7.40484C19.1666 7.86321 19.0747 8.31692 18.8963 8.73917C18.718 9.16141 18.4568 9.54361 18.1282 9.86318L10.8732 16.9773C10.8513 16.9986 10.8339 17.0241 10.822 17.0522C10.8101 17.0803 10.804 17.1106 10.804 17.1411C10.804 17.1716 10.8101 17.2019 10.822 17.23C10.8339 17.2581 10.8513 17.2836 10.8732 17.3048L12.3632 18.7665C12.4289 18.8304 12.4811 18.9069 12.5168 18.9913C12.5525 19.0758 12.5709 19.1665 12.5709 19.2582C12.5709 19.3498 12.5525 19.4406 12.5168 19.525C12.4811 19.6095 12.4289 19.6859 12.3632 19.7498C12.229 19.8803 12.0491 19.9533 11.8619 19.9533C11.6747 19.9533 11.4949 19.8803 11.3607 19.7498L9.87069 18.289C9.71722 18.1399 9.59523 17.9615 9.51192 17.7644C9.42862 17.5673 9.38569 17.3555 9.38569 17.1415C9.38569 16.9275 9.42862 16.7157 9.51192 16.5186C9.59523 16.3215 9.71722 16.1431 9.87069 15.994L17.1257 8.87901C17.3227 8.68721 17.4794 8.45787 17.5863 8.20453C17.6933 7.9512 17.7484 7.679 17.7484 7.40401C17.7484 7.12902 17.6933 6.85682 17.5863 6.60349C17.4794 6.35015 17.3227 6.12081 17.1257 5.92901L17.084 5.88818C16.6818 5.49672 16.1429 5.27748 15.5816 5.27701C15.0204 5.27655 14.481 5.49489 14.0782 5.88568L8.10152 11.7473L8.09985 11.749L8.01819 11.8298C7.88391 11.9606 7.70392 12.0337 7.51652 12.0337C7.32912 12.0337 7.14913 11.9606 7.01485 11.8298C6.94913 11.7659 6.89689 11.6895 6.86122 11.605C6.82555 11.5206 6.80717 11.4298 6.80717 11.3382C6.80717 11.2465 6.82555 11.1558 6.86122 11.0713C6.89689 10.9869 6.94913 10.9104 7.01485 10.8465L13.0757 4.90234C13.2722 4.71042 13.4283 4.4811 13.5348 4.2279C13.6413 3.9747 13.6961 3.70275 13.6958 3.42807C13.6956 3.15338 13.6404 2.88152 13.5335 2.6285C13.4265 2.37549 13.27 2.14644 13.0732 1.95484Z" fill="currentColor"/>
    <path fill-rule="evenodd" clip-rule="evenodd" d="M12.0709 3.92158C12.1366 3.85766 12.1889 3.78122 12.2245 3.69678C12.2602 3.61233 12.2786 3.52158 12.2786 3.42991C12.2786 3.33824 12.2602 3.24749 12.2245 3.16305C12.1889 3.0786 12.1366 3.00216 12.0709 2.93824C11.9366 2.80752 11.7566 2.73438 11.5692 2.73438C11.3818 2.73438 11.2019 2.80752 11.0676 2.93824L5.13508 8.75658C4.80648 9.07614 4.54528 9.45834 4.36693 9.88059C4.18857 10.3028 4.09668 10.7565 4.09668 11.2149C4.09668 11.6733 4.18857 12.127 4.36693 12.5492C4.54528 12.9715 4.80648 13.3537 5.13508 13.6732C5.80619 14.3261 6.7055 14.6913 7.64174 14.6913C8.57799 14.6913 9.4773 14.3261 10.1484 13.6732L16.0817 7.85491C16.1475 7.791 16.1997 7.71456 16.2354 7.63011C16.271 7.54566 16.2894 7.45492 16.2894 7.36324C16.2894 7.27157 16.271 7.18083 16.2354 7.09638C16.1997 7.01193 16.1475 6.93549 16.0817 6.87158C15.9475 6.74086 15.7675 6.66771 15.5801 6.66771C15.3927 6.66771 15.2127 6.74086 15.0784 6.87158L9.14591 12.6899C8.74327 13.0818 8.2036 13.301 7.64174 13.301C7.07989 13.301 6.54022 13.0818 6.13758 12.6899C5.94052 12.4981 5.7839 12.2688 5.67695 12.0154C5.57 11.7621 5.5149 11.4899 5.5149 11.2149C5.5149 10.9399 5.57 10.6677 5.67695 10.4144C5.7839 10.161 5.94052 9.93171 6.13758 9.73991L12.0709 3.92158Z" fill="currentColor"/>
  </g>
  <defs>
    <clipPath id="clip0_mcp">
      <rect width="20" height="20" fill="white"/>
    </clipPath>
  </defs>
</svg>
