<svg xmlns="http://www.w3.org/2000/svg" width="20" height="20" viewBox="0 0 20 20" fill="none">
  <path fill-rule="evenodd" clip-rule="evenodd" d="M9.3645 18.2292C9.16311 18.1459 8.97909 18.0278 8.81242 17.875L2.12492 11.1875C1.97214 11.0209 1.85409 10.8368 1.77075 10.6355C1.68742 10.4341 1.64575 10.2223 1.64575 10C1.64575 9.77782 1.68742 9.56254 1.77075 9.35421C1.85409 9.14587 1.97214 8.96532 2.12492 8.81254L8.81242 2.12504C8.97909 1.95837 9.16311 1.83685 9.3645 1.76046C9.56589 1.68407 9.7777 1.64587 9.99992 1.64587C10.2221 1.64587 10.4374 1.68407 10.6458 1.76046C10.8541 1.83685 11.0346 1.95837 11.1874 2.12504L17.8749 8.81254C18.0416 8.96532 18.1631 9.14587 18.2395 9.35421C18.3159 9.56254 18.3541 9.77782 18.3541 10C18.3541 10.2223 18.3159 10.4341 18.2395 10.6355C18.1631 10.8368 18.0416 11.0209 17.8749 11.1875L11.1874 17.875C11.0346 18.0278 10.8541 18.1459 10.6458 18.2292C10.4374 18.3125 10.2221 18.3542 9.99992 18.3542C9.7777 18.3542 9.56589 18.3125 9.3645 18.2292ZM9.99992 16.6875L16.6874 10L9.99992 3.31254L3.31242 10L9.99992 16.6875ZM9.16659 10.8334H10.8333V5.83337H9.16659V10.8334ZM10.5937 13.0938C10.7534 12.9341 10.8333 12.7362 10.8333 12.5C10.8333 12.2639 10.7534 12.066 10.5937 11.9063C10.4339 11.7466 10.236 11.6667 9.99992 11.6667C9.76381 11.6667 9.56589 11.7466 9.40617 11.9063C9.24645 12.066 9.16659 12.2639 9.16659 12.5C9.16659 12.7362 9.24645 12.9341 9.40617 13.0938C9.56589 13.2535 9.76381 13.3334 9.99992 13.3334C10.236 13.3334 10.4339 13.2535 10.5937 13.0938Z" fill="currentColor"/>
</svg>
