<svg xmlns="http://www.w3.org/2000/svg" width="48" height="48" viewBox="0 0 48 48" fill="none">
  <mask id="mask0_step_upload" style="mask-type:alpha" maskUnits="userSpaceOnUse" x="0" y="0" width="48" height="48">
    <rect width="48" height="48" fill="#D9D9D9"/>
  </mask>
  <g mask="url(#mask0_step_upload)">
    <path d="M22.5 33.2305H25.5V24.3305L29.219 28.05L31.327 25.9425L24 18.6155L16.7115 25.904L18.819 28.0115L22.5 24.3305V33.2305ZM8.6155 39C7.60517 39 6.75 38.65 6.05 37.95C5.35 37.25 5 36.3948 5 35.3845V12.6155C5 11.6052 5.35 10.75 6.05 10.05C6.75 9.35 7.60517 9 8.6155 9H19.596L23.596 13H39.3845C40.3948 13 41.25 13.35 41.95 14.05C42.65 14.75 43 15.6052 43 16.6155V35.3845C43 36.3948 42.65 37.25 41.95 37.95C41.25 38.65 40.3948 39 39.3845 39H8.6155ZM8.6155 36H39.3845C39.5642 36 39.7117 35.9423 39.827 35.827C39.9423 35.7117 40 35.5642 40 35.3845V16.6155C40 16.4358 39.9423 16.2883 39.827 16.173C39.7117 16.0577 39.5642 16 39.3845 16H22.369L18.369 12H8.6155C8.43583 12 8.28833 12.0577 8.173 12.173C8.05767 12.2883 8 12.4358 8 12.6155V35.3845C8 35.5642 8.05767 35.7117 8.173 35.827C8.28833 35.9423 8.43583 36 8.6155 36Z" fill="currentColor"/>
  </g>
</svg>
