<svg xmlns="http://www.w3.org/2000/svg" width="48" height="48" viewBox="0 0 48 48" fill="none">
  <path d="M3.59644 38.6138V34.1673C3.59644 33.1366 3.86244 32.2168 4.39444 31.4078C4.92644 30.5988 5.63694 29.9695 6.52594 29.5198C8.4266 28.5901 10.3378 27.8733 12.2594 27.3693C14.1814 26.8656 16.2936 26.6138 18.5959 26.6138C20.8986 26.6138 23.0108 26.8656 24.9324 27.3693C26.8544 27.8733 28.7658 28.5901 30.6664 29.5198C31.5554 29.9695 32.2659 30.5988 32.7979 31.4078C33.3299 32.2168 33.5959 33.1366 33.5959 34.1673V38.6138H3.59644ZM37.5959 38.6138V33.9213C37.5959 32.6086 37.2746 31.3575 36.6319 30.1678C35.9889 28.9785 35.0769 27.958 33.8959 27.1063C35.2369 27.3063 36.5101 27.6158 37.7154 28.0348C38.9204 28.4541 40.0704 28.9496 41.1654 29.5213C42.1988 30.0726 42.9968 30.7225 43.5594 31.4708C44.1221 32.2188 44.4034 33.0356 44.4034 33.9213V38.6138H37.5959ZM18.5959 23.3828C16.6709 23.3828 15.0231 22.6975 13.6524 21.3268C12.2818 19.9558 11.5964 18.3078 11.5964 16.3828C11.5964 14.4578 12.2818 12.81 13.6524 11.4393C15.0231 10.0683 16.6709 9.38281 18.5959 9.38281C20.5209 9.38281 22.1689 10.0683 23.5399 11.4393C24.9106 12.81 25.5959 14.4578 25.5959 16.3828C25.5959 18.3078 24.9106 19.9558 23.5399 21.3268C22.1689 22.6975 20.5209 23.3828 18.5959 23.3828ZM35.8649 16.3828C35.8649 18.3078 35.1796 19.9558 33.8089 21.3268C32.4383 22.6975 30.7904 23.3828 28.8654 23.3828C28.6398 23.3828 28.3526 23.3571 28.0039 23.3058C27.6549 23.2545 27.3678 23.1981 27.1424 23.1368C27.9311 22.1885 28.5373 21.1365 28.9609 19.9808C29.3843 18.8251 29.5959 17.6251 29.5959 16.3808C29.5959 15.1361 29.3799 13.9406 28.9479 12.7943C28.5159 11.6483 27.9141 10.5933 27.1424 9.62931C27.4294 9.52665 27.7166 9.45998 28.0039 9.42931C28.2909 9.39831 28.5781 9.38281 28.8654 9.38281C30.7904 9.38281 32.4383 10.0683 33.8089 11.4393C35.1796 12.81 35.8649 14.4578 35.8649 16.3828ZM6.59594 35.6138H30.5959V34.1673C30.5959 33.7496 30.4914 33.378 30.2824 33.0523C30.0738 32.7266 29.7424 32.442 29.2884 32.1983C27.6424 31.3496 25.9476 30.7066 24.2039 30.2693C22.4603 29.8323 20.5909 29.6138 18.5959 29.6138C16.6013 29.6138 14.7321 29.8323 12.9884 30.2693C11.2448 30.7066 9.54994 31.3496 7.90394 32.1983C7.44994 32.442 7.11844 32.7266 6.90944 33.0523C6.70044 33.378 6.59594 33.7496 6.59594 34.1673V35.6138ZM18.5959 20.3828C19.6959 20.3828 20.6376 19.9911 21.4209 19.2078C22.2043 18.4245 22.5959 17.4828 22.5959 16.3828C22.5959 15.2828 22.2043 14.3411 21.4209 13.5578C20.6376 12.7745 19.6959 12.3828 18.5959 12.3828C17.4959 12.3828 16.5543 12.7745 15.7709 13.5578C14.9876 14.3411 14.5959 15.2828 14.5959 16.3828C14.5959 17.4828 14.9876 18.4245 15.7709 19.2078C16.5543 19.9911 17.4959 20.3828 18.5959 20.3828Z" fill="currentColor"/>
</svg>
