<svg preserveAspectRatio="none" width="100%" height="100%" overflow="visible" style="display: block;" viewBox="0 0 32 32" fill="none" xmlns="http://www.w3.org/2000/svg">
<g id="openclaw-color 1" clip-path="url(#clip0_0_2121)">
<path id="Vector" d="M16 3.424C7.56 3.424 3.34 10.4573 3.34 16.084C3.34 21.7107 7.56 27.3373 11.78 28.7427V31.556H14.5933V28.7427C14.5933 28.7427 16 29.3053 17.4067 28.7427V31.556H20.22V28.7427C24.44 27.336 28.66 21.7107 28.66 16.084C28.66 10.4573 24.44 3.424 16 3.424Z" fill="url(#paint0_linear_0_2121)"/>
<path id="Vector_2" d="M4.74667 13.2707C0.528 11.864 -0.88 14.6773 0.528 17.4907C1.93467 20.304 4.74667 18.8973 6.15467 16.084C6.99733 14.1147 6.15467 13.2707 4.74667 13.2707Z" fill="url(#paint1_linear_0_2121)"/>
<path id="Vector_3" d="M27.2533 13.2707C31.472 11.864 32.88 14.6773 31.472 17.4907C30.0653 20.304 27.2533 18.8973 25.8453 16.084C25.0027 14.1147 25.8453 13.2707 27.2533 13.2707Z" fill="url(#paint2_linear_0_2121)"/>
<path id="Vector_4" d="M7.34267 2.5C7.97733 2.12 8.724 2.18933 9.496 2.54933C10.2653 2.90933 11.1267 3.58133 12.0787 4.53333C12.1577 4.61237 12.2021 4.71956 12.2021 4.83133C12.2021 4.94311 12.1577 5.0503 12.0787 5.12933C11.9996 5.20837 11.8924 5.25277 11.7807 5.25277C11.6689 5.25277 11.5617 5.20837 11.4827 5.12933C10.5587 4.20533 9.77733 3.612 9.14 3.31467C8.50667 3.01867 8.08 3.04133 7.77733 3.22267C7.68201 3.27138 7.57176 3.2821 7.46883 3.25268C7.36591 3.22326 7.27798 3.15588 7.22281 3.06415C7.16763 2.97241 7.14932 2.86316 7.17157 2.75845C7.19381 2.65374 7.25496 2.56138 7.34267 2.5ZM22.5027 2.55067C23.276 2.19067 24.0227 2.12 24.6573 2.5C24.745 2.56138 24.8062 2.65374 24.8284 2.75845C24.8507 2.86316 24.8324 2.97241 24.7772 3.06415C24.722 3.15588 24.6341 3.22326 24.5312 3.25268C24.4282 3.2821 24.318 3.27138 24.2227 3.22267C23.92 3.04133 23.4933 3.01867 22.86 3.31467C22.2227 3.612 21.4413 4.20533 20.5187 5.12933C20.4795 5.16855 20.4331 5.19968 20.3819 5.22094C20.3307 5.2422 20.2759 5.25318 20.2205 5.25324C20.1651 5.2533 20.1102 5.24245 20.059 5.2213C20.0078 5.20016 19.9612 5.16913 19.922 5.13C19.8828 5.09087 19.8517 5.04439 19.8304 4.99323C19.8091 4.94206 19.7982 4.88721 19.7981 4.8318C19.798 4.7764 19.8089 4.72152 19.83 4.67031C19.8512 4.6191 19.8822 4.57255 19.9213 4.53333C20.8733 3.58133 21.7347 2.90933 22.5027 2.55067Z" fill="var(--fill-0, #FF4D4D)"/>
<path id="Vector_5" d="M11.78 12.1453C12.2277 12.1453 12.657 11.9675 12.9736 11.6509C13.2902 11.3344 13.468 10.905 13.468 10.4573C13.468 10.0096 13.2902 9.5803 12.9736 9.26374C12.657 8.94718 12.2277 8.76933 11.78 8.76933C11.3323 8.76933 10.903 8.94718 10.5864 9.26374C10.2698 9.5803 10.092 10.0096 10.092 10.4573C10.092 10.905 10.2698 11.3344 10.5864 11.6509C10.903 11.9675 11.3323 12.1453 11.78 12.1453ZM20.22 12.1453C20.6677 12.1453 21.097 11.9675 21.4136 11.6509C21.7302 11.3344 21.908 10.905 21.908 10.4573C21.908 10.0096 21.7302 9.5803 21.4136 9.26374C21.097 8.94718 20.6677 8.76933 20.22 8.76933C19.7723 8.76933 19.343 8.94718 19.0264 9.26374C18.7098 9.5803 18.532 10.0096 18.532 10.4573C18.532 10.905 18.7098 11.3344 19.0264 11.6509C19.343 11.9675 19.7723 12.1453 20.22 12.1453Z" fill="var(--fill-0, #050810)"/>
<path id="Vector_6" d="M12.0613 10.88C12.248 10.88 12.4271 10.8058 12.5591 10.6738C12.6912 10.5418 12.7653 10.3627 12.7653 10.176C12.7653 9.98929 12.6912 9.81022 12.5591 9.6782C12.4271 9.54617 12.248 9.472 12.0613 9.472C11.8748 9.472 11.6959 9.5461 11.564 9.678C11.4321 9.8099 11.358 9.9888 11.358 10.1753C11.358 10.3619 11.4321 10.5408 11.564 10.6727C11.6959 10.8046 11.8748 10.88 12.0613 10.88ZM20.5013 10.88C20.6879 10.88 20.8668 10.8059 20.9987 10.674C21.1306 10.5421 21.2047 10.3632 21.2047 10.1767C21.2047 9.99013 21.1306 9.81124 20.9987 9.67933C20.8668 9.54743 20.6879 9.47333 20.5013 9.47333C20.315 9.47333 20.1362 9.54736 20.0045 9.67914C19.8727 9.81091 19.7987 9.98964 19.7987 10.176C19.7987 10.3624 19.8727 10.5411 20.0045 10.6729C20.1362 10.8046 20.315 10.88 20.5013 10.88Z" fill="var(--fill-0, #00E5CC)"/>
</g>
<defs>
<linearGradient id="paint0_linear_0_2121" x1="-0.878667" y1="0.610667" x2="36.0307" y2="30.4733" gradientUnits="userSpaceOnUse">
<stop stop-color="#FF4D4D"/>
<stop offset="1" stop-color="#991B1B"/>
</linearGradient>
<linearGradient id="paint1_linear_0_2121" x1="-3.49033e-08" y1="12.896" x2="5.748" y2="19.932" gradientUnits="userSpaceOnUse">
<stop stop-color="#FF4D4D"/>
<stop offset="1" stop-color="#991B1B"/>
</linearGradient>
<linearGradient id="paint2_linear_0_2121" x1="25.8467" y1="13.2707" x2="32.532" y2="19.2827" gradientUnits="userSpaceOnUse">
<stop stop-color="#FF4D4D"/>
<stop offset="1" stop-color="#991B1B"/>
</linearGradient>
<clipPath id="clip0_0_2121">
<rect width="32" height="32" fill="white"/>
</clipPath>
</defs>
</svg>
