<svg preserveAspectRatio="none" width="100%" height="100%" overflow="visible" style="display: block;" viewBox="0 0 80 80" fill="none" xmlns="http://www.w3.org/2000/svg">
<g clip-path="url(#clip0_0_30)">
<path d="M20.625 26.0875L15.2125 27.2375L15.1875 45.0375C15.1875 48.325 17.6625 50.45 20.95 50.45C22.775 50.45 24.1125 50.1125 24.85 49.7125V45.4875C24.1375 45.775 20.6375 46.8 20.6375 43.525V35.625H24.85V30.9H20.6375L20.625 26.0875ZM31.7625 32.5375L31.425 30.9H26.625V50.05H32.1625V37.1625C33.475 35.4375 35.6875 35.775 36.4 36V30.9C35.65 30.6375 33.0625 30.15 31.7625 32.5375ZM43.3 23.5L37.725 24.6875V29.2125L43.3 28.025V23.5ZM5.6125 36.5375C5.6125 35.675 6.3375 35.3375 7.5 35.325C9.1875 35.325 11.3375 35.8375 13.025 36.75V31.525C11.1875 30.8 9.35 30.5125 7.5125 30.5125C3.0125 30.5125 0.0125 32.8625 0.0125 36.7875C0.0125 42.9375 8.45 41.9375 8.45 44.5875C8.45 45.6125 7.5625 45.95 6.325 45.95C4.4875 45.95 2.1125 45.1875 0.25 44.175V49.175C2.3125 50.0625 4.4 50.4375 6.3125 50.4375C10.925 50.4375 14.1 48.4625 14.1 44.4625C14.1 37.85 5.6125 39.0375 5.6125 36.5375ZM80 40.7C80 35.0125 77.25 30.525 71.975 30.525C66.7 30.525 63.4875 35.0125 63.4875 40.6625C63.4875 47.35 67.275 50.4375 72.675 50.4375C75.325 50.4375 77.3125 49.8375 78.825 49V44.825C77.3125 45.5875 75.575 46.05 73.375 46.05C71.2125 46.05 69.3125 45.2875 69.0625 42.6875H79.925C79.95 42.4 80 41.2375 80 40.7ZM69.0125 38.6C69.0125 36.1 70.55 35.05 71.9375 35.05C73.3 35.05 74.75 36.1 74.75 38.6H69.0125ZM54.9 30.525C52.725 30.525 51.325 31.55 50.55 32.2625L50.2625 30.8875H45.375V56.4875L50.925 55.3125L50.9375 49.0375C51.7375 49.625 52.925 50.4375 54.8625 50.4375C58.8375 50.4375 62.4625 47.5375 62.4625 40.4875C62.475 34.0375 58.8 30.525 54.9 30.525ZM53.575 45.8375C52.275 45.8375 51.5 45.3625 50.9625 44.7875L50.925 36.5375C51.5 35.9 52.3 35.4375 53.575 35.4375C55.6 35.4375 57 37.7125 57 40.6125C57.0125 43.6 55.6375 45.8375 53.575 45.8375ZM37.7375 50.05H43.3125V30.9H37.7375V50.05Z" fill="#525252"/>
</g>
<defs>
<clipPath id="clip0_0_30">
<rect width="80" height="80" fill="white"/>
</clipPath>
</defs>
</svg>
